<svg height="464pt" viewBox="0 -56 464 464" width="464pt" xmlns="http://www.w3.org/2000/svg"><path d="m16 248h448v104h-448zm0 0" fill="#73a280"/><path d="m464 256h-448c-8.835938 0-16-7.164062-16-16v-224c0-8.835938 7.164062-16 16-16h344l104 104zm0 0" fill="#85bc94"/><path d="m16 256h448v32h-448zm0 0" fill="#80b48e"/><path d="m16 288h448v32h-448zm0 0" fill="#7aac88"/><path d="m360 32h-288c0 22.089844-17.910156 40-40 40v112c22.089844 0 40 17.910156 40 40h320c0-22.089844 17.910156-40 40-40v-80h-72zm0 0" fill="#99d8aa"/><path d="m360 0 104 104h-104zm0 0" fill="#a4e8b7"/><path d="m368 8h96v96zm0 0" fill="#80b48e"/><path d="m296 128c0 35.347656-28.652344 64-64 64s-64-28.652344-64-64 28.652344-64 64-64 64 28.652344 64 64zm0 0" fill="#85bc94"/><path d="m400 40h32v32zm0 0" fill="#99d8aa"/><g fill="#85bc94"><path d="m112 120h16v16h-16zm0 0"/><path d="m336 120h16v16h-16zm0 0"/></g></svg>