<svg width="27" height="7" viewBox="0 0 27 7" fill="none" xmlns="http://www.w3.org/2000/svg">
<path d="M3.88594 6.28C2.9526 6.28 2.17927 5.98667 1.56594 5.4C0.979271 4.81333 0.685938 4.10667 0.685938 3.28C0.685938 2.42667 0.979271 1.70667 1.56594 1.12C2.17927 0.533333 2.9526 0.24 3.88594 0.24C4.81927 0.24 5.57927 0.533333 6.16594 1.12C6.77927 1.70667 7.08594 2.42667 7.08594 3.28C7.08594 4.10667 6.77927 4.81333 6.16594 5.4C5.57927 5.98667 4.81927 6.28 3.88594 6.28ZM13.4953 6.28C12.562 6.28 11.7886 5.98667 11.1753 5.4C10.5886 4.81333 10.2953 4.10667 10.2953 3.28C10.2953 2.42667 10.5886 1.70667 11.1753 1.12C11.7886 0.533333 12.562 0.24 13.4953 0.24C14.4286 0.24 15.1886 0.533333 15.7753 1.12C16.3886 1.70667 16.6953 2.42667 16.6953 3.28C16.6953 4.10667 16.3886 4.81333 15.7753 5.4C15.1886 5.98667 14.4286 6.28 13.4953 6.28ZM23.1047 6.28C22.1714 6.28 21.398 5.98667 20.7847 5.4C20.198 4.81333 19.9047 4.10667 19.9047 3.28C19.9047 2.42667 20.198 1.70667 20.7847 1.12C21.398 0.533333 22.1714 0.24 23.1047 0.24C24.038 0.24 24.798 0.533333 25.3847 1.12C25.998 1.70667 26.3047 2.42667 26.3047 3.28C26.3047 4.10667 25.998 4.81333 25.3847 5.4C24.798 5.98667 24.038 6.28 23.1047 6.28Z" fill="white"/>
</svg>
