<?xml version="1.0" standalone="no"?>
<!DOCTYPE svg PUBLIC "-//W3C//DTD SVG 20010904//EN"
 "http://www.w3.org/TR/2001/REC-SVG-20010904/DTD/svg10.dtd">
<svg version="1.0" xmlns="http://www.w3.org/2000/svg"
 width="700.000000pt" height="700.000000pt" viewBox="0 0 700.000000 700.000000"
 preserveAspectRatio="xMidYMid meet">
<metadata>
Created by potrace 1.14, written by Peter Selinger 2001-2017
</metadata>
<g transform="translate(0.000000,700.000000) scale(0.100000,-0.100000)"
fill="#000000" stroke="none">
<path d="M183 6147 c-55 -11 -113 -55 -148 -112 l-30 -48 0 -1761 0 -1761 22
-42 c12 -22 39 -55 60 -72 38 -31 127 -66 144 -55 8 4 11 -353 10 -1236 0
-108 3 -200 7 -206 5 -6 1145 -10 3380 -9 l3372 0 0 2592 c0 1426 -3 2593 -7
2594 -5 1 -330 2 -724 2 l-717 2 -58 60 -59 59 -2607 1 c-1433 0 -2623 -4
-2645 -8z"/>
</g>
</svg>
